<svg width="540" height="156" viewBox="0 0 540 156" fill="none" xmlns="http://www.w3.org/2000/svg">
<path d="M537 138.009C537 146.323 530.126 153.057 521.623 153.057H18.3973C9.8985 153.057 3 146.323 3 138.009V18.0105C3 9.70097 9.8985 2.94336 18.3973 2.94336H521.619C530.126 2.94336 536.996 9.70097 536.996 18.0105L537 138.009Z" fill="white"/>
<path d="M520 3.12488C529.26 3.12488 536.795 10.4715 536.795 19.5V136.5C536.795 145.529 529.26 152.875 520 152.875H20C10.74 152.875 3.205 145.529 3.205 136.5V19.5C3.205 10.4715 10.74 3.12488 20 3.12488H520ZM520 1.52588e-05H20C9.005 1.52588e-05 0 8.77989 0 19.5V136.5C0 147.22 9.005 156 20 156H520C530.995 156 540 147.22 540 136.5V19.5C540 8.77989 530.995 1.52588e-05 520 1.52588e-05Z" fill="#A6A6A6"/>
<path d="M120.512 77.1574C120.396 64.5877 131.068 58.4725 131.556 58.1878C125.512 49.5961 116.144 48.4222 112.852 48.3286C104.984 47.5213 97.3524 52.9189 93.3444 52.9189C89.2564 52.9189 83.0844 48.4066 76.4324 48.5392C67.8723 48.6679 59.8644 53.5 55.4724 61.0036C46.4084 76.3033 53.1684 98.7868 61.8524 111.154C66.1964 117.21 71.2724 123.973 77.9164 123.735C84.4164 123.474 86.8444 119.695 94.6884 119.695C102.46 119.695 104.74 123.735 111.516 123.583C118.492 123.474 122.884 117.499 127.076 111.388C132.096 104.446 134.112 97.609 134.192 97.258C134.028 97.2034 120.644 92.2231 120.512 77.1574Z" fill="black"/>
<path d="M107.712 40.1932C111.208 35.9305 113.6 30.1312 112.936 24.2461C107.876 24.4645 101.548 27.6586 97.9044 31.8277C94.6804 35.5015 91.8003 41.5231 92.5443 47.1859C98.2283 47.5993 104.064 44.3896 107.712 40.1932Z" fill="black"/>
<path d="M196.496 39.0349C196.496 43.6252 195.084 47.0806 192.264 49.4011C189.652 51.5422 185.94 52.6147 181.132 52.6147C178.748 52.6147 176.708 52.5133 175 52.3105V27.2296C177.228 26.8786 179.628 26.6992 182.22 26.6992C186.8 26.6992 190.252 27.6703 192.58 29.6125C195.188 31.8082 196.496 34.9477 196.496 39.0349ZM192.076 39.148C192.076 36.1723 191.268 33.8908 189.652 32.2996C188.036 30.7123 185.676 29.9167 182.568 29.9167C181.248 29.9167 180.124 30.0025 179.192 30.1819V49.249C179.708 49.327 180.652 49.3621 182.024 49.3621C185.232 49.3621 187.708 48.4924 189.452 46.753C191.196 45.0136 192.076 42.4786 192.076 39.148Z" fill="black"/>
<path d="M219.932 43.0445C219.932 45.872 219.104 48.1886 217.448 50.006C215.712 51.8741 213.412 52.8062 210.54 52.8062C207.772 52.8062 205.568 51.9131 203.924 50.1191C202.284 48.329 201.464 46.0709 201.464 43.3487C201.464 40.5017 202.308 38.1656 204.004 36.3521C205.7 34.5386 207.98 33.6299 210.852 33.6299C213.62 33.6299 215.844 34.523 217.528 36.3131C219.128 38.0525 219.932 40.2989 219.932 43.0445ZM215.584 43.1771C215.584 41.4806 215.208 40.0259 214.46 38.813C213.58 37.3466 212.328 36.6134 210.7 36.6134C209.016 36.6134 207.736 37.3466 206.856 38.813C206.104 40.0259 205.732 41.504 205.732 43.2512C205.732 44.9477 206.108 46.4024 206.856 47.6153C207.764 49.0817 209.028 49.8149 210.66 49.8149C212.26 49.8149 213.516 49.07 214.42 47.5763C215.196 46.34 215.584 44.8736 215.584 43.1771Z" fill="black"/>
<path d="M251.356 34.0039L245.456 52.3885H241.616L239.172 44.4052C238.552 42.4123 238.048 40.4311 237.656 38.4655H237.58C237.216 40.4857 236.712 42.463 236.064 44.4052L233.468 52.3885H229.584L224.036 34.0039H228.344L230.476 42.7438C230.992 44.8108 231.416 46.7803 231.756 48.6445H231.832C232.144 47.1079 232.66 45.1501 233.388 42.7828L236.064 34.0078H239.48L242.044 42.5956C242.664 44.6899 243.168 46.7062 243.556 48.6484H243.672C243.956 46.7569 244.384 44.7406 244.952 42.5956L247.24 34.0078H251.356V34.0039Z" fill="black"/>
<path d="M273.088 52.3889H268.896V41.8589C268.896 38.6141 267.632 36.9917 265.096 36.9917C263.852 36.9917 262.848 37.4363 262.068 38.3294C261.296 39.2225 260.904 40.2755 260.904 41.4806V52.385H256.712V39.2576C256.712 37.643 256.66 35.8919 256.56 33.9965H260.244L260.44 36.8708H260.556C261.044 35.9777 261.772 35.2406 262.728 34.6517C263.864 33.9653 265.136 33.6182 266.528 33.6182C268.288 33.6182 269.752 34.172 270.916 35.2835C272.364 36.6446 273.088 38.6765 273.088 41.3753V52.3889V52.3889Z" fill="black"/>
<path d="M284.648 52.3887H280.46V25.5684H284.648V52.3887Z" fill="black"/>
<path d="M309.328 43.0445C309.328 45.872 308.5 48.1886 306.844 50.006C305.108 51.8741 302.804 52.8062 299.936 52.8062C297.164 52.8062 294.96 51.9131 293.32 50.1191C291.68 48.329 290.86 46.0709 290.86 43.3487C290.86 40.5017 291.704 38.1656 293.4 36.3521C295.096 34.5386 297.376 33.6299 300.244 33.6299C303.016 33.6299 305.236 34.523 306.924 36.3131C308.524 38.0525 309.328 40.2989 309.328 43.0445ZM304.976 43.1771C304.976 41.4806 304.6 40.0259 303.852 38.813C302.976 37.3466 301.72 36.6134 300.096 36.6134C298.408 36.6134 297.128 37.3466 296.252 38.813C295.5 40.0259 295.128 41.504 295.128 43.2512C295.128 44.9477 295.504 46.4024 296.252 47.6153C297.16 49.0817 298.424 49.8149 300.056 49.8149C301.656 49.8149 302.908 49.07 303.812 47.5763C304.592 46.34 304.976 44.8736 304.976 43.1771Z" fill="black"/>
<path d="M329.616 52.3889H325.852L325.54 50.2712H325.424C324.136 51.9599 322.3 52.8062 319.916 52.8062C318.136 52.8062 316.696 52.2485 315.612 51.1409C314.628 50.1347 314.136 48.8828 314.136 47.3969C314.136 45.1505 315.096 43.4384 317.028 42.2528C318.956 41.0672 321.668 40.4861 325.16 40.5134V40.1702C325.16 37.7483 323.856 36.5393 321.244 36.5393C319.384 36.5393 317.744 36.9956 316.328 37.9004L315.476 35.2172C317.228 34.1603 319.392 33.6299 321.944 33.6299C326.872 33.6299 329.344 36.1649 329.344 41.2349V48.0053C329.344 49.8422 329.436 51.3047 329.616 52.3889ZM325.264 46.0709V43.2356C320.64 43.1576 318.328 44.3939 318.328 46.9406C318.328 47.9 318.592 48.6176 319.132 49.0973C319.672 49.577 320.36 49.8149 321.18 49.8149C322.1 49.8149 322.96 49.5302 323.744 48.9647C324.532 48.3953 325.016 47.6738 325.196 46.7885C325.24 46.5896 325.264 46.3478 325.264 46.0709Z" fill="black"/>
<path d="M353.436 52.3887H349.716L349.52 49.4364H349.404C348.216 51.6828 346.192 52.806 343.348 52.806C341.077 52.806 339.185 51.9363 337.685 50.1969C336.185 48.4575 335.437 46.1994 335.437 43.4265C335.437 40.4508 336.249 38.0406 337.881 36.1998C339.461 34.4838 341.396 33.6258 343.7 33.6258C346.232 33.6258 348.004 34.4565 349.012 36.1218H349.092V25.5684H353.288V47.4357C353.288 49.2258 353.336 50.8755 353.436 52.3887ZM349.092 44.6355V41.5701C349.092 41.0397 349.052 40.6107 348.976 40.2831C348.74 39.3003 348.232 38.4735 347.46 37.8066C346.68 37.1397 345.74 36.8043 344.656 36.8043C343.092 36.8043 341.868 37.4088 340.968 38.6217C340.076 39.8346 339.625 41.3829 339.625 43.2744C339.625 45.0918 340.052 46.566 340.912 47.7009C341.82 48.9099 343.044 49.5144 344.576 49.5144C345.952 49.5144 347.052 49.0113 347.888 48.0012C348.696 47.0691 349.092 45.9459 349.092 44.6355Z" fill="black"/>
<path d="M389.288 43.0445C389.288 45.872 388.46 48.1886 386.804 50.006C385.068 51.8741 382.772 52.8062 379.896 52.8062C377.132 52.8062 374.928 51.9131 373.28 50.1191C371.64 48.329 370.82 46.0709 370.82 43.3487C370.82 40.5017 371.664 38.1656 373.36 36.3521C375.056 34.5386 377.336 33.6299 380.212 33.6299C382.976 33.6299 385.204 34.523 386.884 36.3131C388.484 38.0525 389.288 40.2989 389.288 43.0445ZM384.944 43.1771C384.944 41.4806 384.568 40.0259 383.82 38.813C382.936 37.3466 381.688 36.6134 380.056 36.6134C378.376 36.6134 377.096 37.3466 376.212 38.813C375.46 40.0259 375.088 41.504 375.088 43.2512C375.088 44.9477 375.464 46.4024 376.212 47.6153C377.12 49.0817 378.384 49.8149 380.016 49.8149C381.616 49.8149 382.876 49.07 383.78 47.5763C384.552 46.34 384.944 44.8736 384.944 43.1771Z" fill="black"/>
<path d="M411.828 52.3889H407.64V41.8589C407.64 38.6141 406.376 36.9917 403.836 36.9917C402.592 36.9917 401.588 37.4363 400.812 38.3294C400.036 39.2225 399.648 40.2755 399.648 41.4806V52.385H395.452V39.2576C395.452 37.643 395.404 35.8919 395.304 33.9965H398.984L399.18 36.8708H399.296C399.788 35.9777 400.516 35.2406 401.468 34.6517C402.608 33.9653 403.876 33.6182 405.272 33.6182C407.028 33.6182 408.492 34.172 409.656 35.2835C411.108 36.6446 411.828 38.6765 411.828 41.3753V52.3889V52.3889Z" fill="black"/>
<path d="M440.04 37.0654H435.424V45.9964C435.424 48.2662 436.244 49.4011 437.868 49.4011C438.62 49.4011 439.244 49.3387 439.736 49.21L439.844 52.3105C439.016 52.6147 437.928 52.7668 436.588 52.7668C434.932 52.7668 433.644 52.2754 432.712 51.2926C431.776 50.3098 431.312 48.6562 431.312 46.3357V37.0654H428.556V34.0039H431.312V30.6343L435.42 29.4253V34H440.036V37.0654H440.04Z" fill="black"/>
<path d="M462.233 52.3887H458.037V41.9367C458.037 38.6412 456.773 36.9915 454.24 36.9915C452.296 36.9915 450.968 37.947 450.24 39.858C450.116 40.2597 450.044 40.7511 450.044 41.3283V52.3848H445.856V25.5684H450.044V36.6483H450.124C451.444 34.632 453.336 33.6258 455.789 33.6258C457.525 33.6258 458.961 34.1796 460.101 35.2911C461.521 36.6756 462.233 38.7348 462.233 41.457V52.3887V52.3887Z" fill="black"/>
<path d="M485.124 42.3268C485.124 43.06 485.068 43.6762 484.968 44.1793H472.396C472.452 45.9967 473.052 47.3812 474.216 48.3406C475.28 49.1986 476.652 49.6276 478.332 49.6276C480.192 49.6276 481.888 49.339 483.416 48.7579L484.072 51.5971C482.284 52.3537 480.18 52.732 477.744 52.732C474.824 52.732 472.524 51.8935 470.86 50.2165C469.188 48.5395 468.36 46.2892 468.36 43.4656C468.36 40.6927 469.132 38.3839 470.688 36.5431C472.312 34.5775 474.508 33.5947 477.28 33.5947C479.992 33.5947 482.052 34.5775 483.444 36.5431C484.568 38.1031 485.124 40.0336 485.124 42.3268ZM481.124 41.2699C481.156 40.057 480.88 39.0118 480.312 38.1304C479.584 36.9955 478.476 36.4261 476.976 36.4261C475.608 36.4261 474.492 36.9799 473.64 38.0914C472.944 38.9767 472.532 40.0336 472.396 41.2699H481.124Z" fill="black"/>
<path d="M214.58 122.866H205.496L200.52 107.62H183.224L178.484 122.866H169.64L186.776 70.9644H197.36L214.58 122.866ZM199.02 101.224L194.52 87.672C194.044 86.2875 193.152 83.0271 191.836 77.8947H191.676C191.152 80.1021 190.308 83.3625 189.148 87.672L184.728 101.224H199.02V101.224Z" fill="black"/>
<path d="M258.648 103.694C258.648 110.058 256.884 115.089 253.356 118.783C250.196 122.07 246.272 123.712 241.588 123.712C236.532 123.712 232.9 121.942 230.688 118.401H230.528V138.115H222V97.7617C222 93.7603 221.892 89.6536 221.684 85.4416H229.184L229.66 91.3735H229.82C232.664 86.9041 236.98 84.6733 242.772 84.6733C247.3 84.6733 251.08 86.4166 254.104 89.9071C257.136 93.4015 258.648 97.9957 258.648 103.694ZM249.96 103.998C249.96 100.355 249.12 97.3522 247.432 94.9888C245.588 92.524 243.112 91.2916 240.008 91.2916C237.904 91.2916 235.992 91.978 234.284 93.3313C232.572 94.6963 231.452 96.4786 230.928 98.686C230.664 99.7156 230.532 100.558 230.532 101.221V107.461C230.532 110.183 231.388 112.48 233.1 114.356C234.812 116.232 237.036 117.168 239.772 117.168C242.984 117.168 245.484 115.959 247.272 113.549C249.064 111.135 249.96 107.952 249.96 103.998Z" fill="black"/>
<path d="M302.796 103.694C302.796 110.058 301.032 115.089 297.5 118.783C294.344 122.07 290.42 123.712 285.736 123.712C280.68 123.712 277.048 121.942 274.84 118.401H274.68V138.115H266.152V97.7617C266.152 93.7603 266.044 89.6536 265.836 85.4416H273.336L273.812 91.3735H273.972C276.812 86.9041 281.128 84.6733 286.924 84.6733C291.448 84.6733 295.228 86.4166 298.26 89.9071C301.28 93.4015 302.796 97.9957 302.796 103.694ZM294.108 103.998C294.108 100.355 293.264 97.3522 291.576 94.9888C289.732 92.524 287.264 91.2916 284.156 91.2916C282.048 91.2916 280.14 91.978 278.428 93.3313C276.716 94.6963 275.6 96.4786 275.076 98.686C274.816 99.7156 274.68 100.558 274.68 101.221V107.461C274.68 110.183 275.536 112.48 277.24 114.356C278.952 116.228 281.176 117.168 283.92 117.168C287.132 117.168 289.632 115.959 291.42 113.549C293.212 111.135 294.108 107.952 294.108 103.998Z" fill="black"/>
<path d="M352.156 108.311C352.156 112.726 350.584 116.318 347.428 119.091C343.96 122.121 339.132 123.634 332.928 123.634C327.2 123.634 322.608 122.558 319.132 120.401L321.108 113.471C324.852 115.678 328.96 116.786 333.436 116.786C336.648 116.786 339.148 116.076 340.944 114.664C342.732 113.252 343.624 111.357 343.624 108.994C343.624 106.888 342.888 105.113 341.412 103.674C339.944 102.235 337.492 100.897 334.068 99.6608C324.748 96.2717 320.092 91.307 320.092 84.7784C320.092 80.5118 321.724 77.0135 324.992 74.2913C328.248 71.5652 332.592 70.2041 338.024 70.2041C342.868 70.2041 346.892 71.027 350.104 72.6689L347.972 79.4471C344.972 77.8559 341.58 77.0603 337.784 77.0603C334.784 77.0603 332.44 77.7818 330.76 79.217C329.34 80.5001 328.628 82.064 328.628 83.9165C328.628 85.9679 329.44 87.6644 331.072 88.9982C332.492 90.2306 335.072 91.5644 338.816 93.0035C343.396 94.8014 346.76 96.9035 348.924 99.3137C351.08 101.716 352.156 104.723 352.156 108.311Z" fill="black"/>
<path d="M380.352 91.6811H370.952V109.851C370.952 114.473 372.608 116.782 375.928 116.782C377.452 116.782 378.716 116.653 379.716 116.395L379.952 122.71C378.272 123.322 376.06 123.63 373.32 123.63C369.952 123.63 367.32 122.628 365.42 120.627C363.528 118.622 362.576 115.261 362.576 110.538V91.6733H356.976V85.4333H362.576V78.581L370.952 76.1162V85.4333H380.352V91.6811Z" fill="black"/>
<path d="M422.764 103.845C422.764 109.598 421.076 114.321 417.708 118.014C414.176 121.816 409.488 123.712 403.644 123.712C398.012 123.712 393.528 121.891 390.184 118.248C386.84 114.605 385.168 110.007 385.168 104.465C385.168 98.6661 386.888 93.9159 390.34 90.2226C393.784 86.5254 398.432 84.6768 404.276 84.6768C409.908 84.6768 414.44 86.4981 417.86 90.1446C421.132 93.6819 422.764 98.2488 422.764 103.845ZM413.916 104.114C413.916 100.663 413.16 97.7028 411.628 95.2341C409.84 92.2467 407.284 90.7569 403.972 90.7569C400.544 90.7569 397.94 92.2506 396.152 95.2341C394.62 97.7067 393.864 100.714 393.864 104.27C393.864 107.722 394.62 110.682 396.152 113.147C397.996 116.134 400.572 117.624 403.896 117.624C407.152 117.624 409.708 116.103 411.552 113.069C413.124 110.553 413.916 107.562 413.916 104.114Z" fill="black"/>
<path d="M450.483 92.7541C449.639 92.602 448.739 92.524 447.795 92.524C444.795 92.524 442.475 93.6277 440.843 95.839C439.423 97.789 438.711 100.254 438.711 103.23V122.866H430.187L430.267 97.2274C430.267 92.914 430.159 88.9867 429.947 85.4455H437.375L437.687 92.6059H437.923C438.823 90.145 440.243 88.1638 442.187 86.6779C444.087 85.3402 446.139 84.6733 448.351 84.6733C449.139 84.6733 449.851 84.7279 450.483 84.8254V92.7541Z" fill="black"/>
<path d="M488.624 102.383C488.624 103.873 488.524 105.129 488.312 106.154H462.728C462.828 109.852 464.064 112.679 466.44 114.629C468.596 116.372 471.384 117.246 474.808 117.246C478.596 117.246 482.052 116.657 485.16 115.475L486.496 121.247C482.864 122.792 478.576 123.56 473.628 123.56C467.676 123.56 463.004 121.852 459.604 118.439C456.212 115.027 454.512 110.444 454.512 104.696C454.512 99.0525 456.092 94.353 459.256 90.6051C462.568 86.6037 467.044 84.603 472.676 84.603C478.208 84.603 482.396 86.6037 485.24 90.6051C487.492 93.7836 488.624 97.7148 488.624 102.383ZM480.492 100.226C480.548 97.7616 479.992 95.6322 478.836 93.8343C477.36 91.5216 475.092 90.3672 472.04 90.3672C469.252 90.3672 466.984 91.4943 465.252 93.7563C463.832 95.5542 462.988 97.7109 462.728 100.223H480.492V100.226Z" fill="black"/>
</svg>
