<svg width="540" height="156" viewBox="0 0 540 156" fill="none" xmlns="http://www.w3.org/2000/svg">
<path d="M520 156H20C9.005 156 0 147.22 0 136.5V19.5C0 8.77989 9.005 1.52588e-05 20 1.52588e-05H520C530.995 1.52588e-05 540 8.77989 540 19.5V136.5C540 147.22 530.995 156 520 156Z" fill="white"/>
<path d="M520 3.12488C529.26 3.12488 536.795 10.4715 536.795 19.5V136.5C536.795 145.529 529.26 152.875 520 152.875H20C10.74 152.875 3.205 145.529 3.205 136.5V19.5C3.205 10.4715 10.74 3.12488 20 3.12488H520ZM520 1.52588e-05H20C9.005 1.52588e-05 0 8.77989 0 19.5V136.5C0 147.22 9.005 156 20 156H520C530.995 156 540 147.22 540 136.5V19.5C540 8.77989 530.995 1.52588e-05 520 1.52588e-05Z" fill="#A6A6A6"/>
<path d="M41.7398 29.4013C40.5648 30.6006 39.8848 32.4677 39.8848 34.8857V121.134C39.8848 123.552 40.5648 125.419 41.7398 126.619L42.0298 126.882L91.5997 78.5706V77.4298L42.0298 29.1186L41.7398 29.4013Z" fill="url(#paint0_linear_1305_3306)"/>
<path d="M108.105 94.6821L91.5996 78.5703V77.4295L108.125 61.3176L108.495 61.5273L128.065 72.3839C133.65 75.4649 133.65 80.5349 128.065 83.6354L108.495 94.4725L108.105 94.6821Z" fill="url(#paint1_linear_1305_3306)"/>
<path d="M108.494 94.4726L91.5993 78L41.7393 126.618C43.5943 128.52 46.6193 128.749 50.0593 126.848L108.494 94.4726Z" fill="url(#paint2_linear_1305_3306)"/>
<path d="M108.494 61.5274L50.0593 29.1525C46.6193 27.2708 43.5943 27.4999 41.7393 29.4011L91.5993 78L108.494 61.5274Z" fill="url(#paint3_linear_1305_3306)"/>
<path d="M196.496 39.0349C196.496 43.6252 195.084 47.0806 192.264 49.4011C189.652 51.5422 185.94 52.6147 181.132 52.6147C178.748 52.6147 176.708 52.5133 175 52.3105V27.2296C177.228 26.8786 179.628 26.6992 182.22 26.6992C186.8 26.6992 190.252 27.6703 192.58 29.6125C195.188 31.8082 196.496 34.9477 196.496 39.0349ZM192.076 39.148C192.076 36.1723 191.268 33.8908 189.652 32.2996C188.036 30.7123 185.676 29.9167 182.568 29.9167C181.248 29.9167 180.124 30.0025 179.192 30.1819V49.249C179.708 49.327 180.652 49.3621 182.024 49.3621C185.232 49.3621 187.708 48.4924 189.452 46.753C191.196 45.0136 192.076 42.4786 192.076 39.148Z" fill="black"/>
<path d="M219.932 43.0445C219.932 45.872 219.104 48.1886 217.448 50.006C215.712 51.8741 213.412 52.8062 210.54 52.8062C207.772 52.8062 205.568 51.9131 203.924 50.1191C202.284 48.329 201.464 46.0709 201.464 43.3487C201.464 40.5017 202.308 38.1656 204.004 36.3521C205.7 34.5386 207.98 33.6299 210.852 33.6299C213.62 33.6299 215.844 34.523 217.528 36.3131C219.128 38.0525 219.932 40.2989 219.932 43.0445ZM215.584 43.1771C215.584 41.4806 215.208 40.0259 214.46 38.813C213.58 37.3466 212.328 36.6134 210.7 36.6134C209.016 36.6134 207.736 37.3466 206.856 38.813C206.104 40.0259 205.732 41.504 205.732 43.2512C205.732 44.9477 206.108 46.4024 206.856 47.6153C207.764 49.0817 209.028 49.8149 210.66 49.8149C212.26 49.8149 213.516 49.07 214.42 47.5763C215.196 46.34 215.584 44.8736 215.584 43.1771Z" fill="black"/>
<path d="M251.356 34.0039L245.456 52.3885H241.616L239.172 44.4052C238.552 42.4123 238.048 40.4311 237.656 38.4655H237.58C237.216 40.4857 236.712 42.463 236.064 44.4052L233.468 52.3885H229.584L224.036 34.0039H228.344L230.476 42.7438C230.992 44.8108 231.416 46.7803 231.756 48.6445H231.832C232.144 47.1079 232.66 45.1501 233.388 42.7828L236.064 34.0078H239.48L242.044 42.5956C242.664 44.6899 243.168 46.7062 243.556 48.6484H243.672C243.956 46.7569 244.384 44.7406 244.952 42.5956L247.24 34.0078H251.356V34.0039Z" fill="black"/>
<path d="M273.088 52.3889H268.896V41.8589C268.896 38.6141 267.632 36.9917 265.096 36.9917C263.852 36.9917 262.848 37.4363 262.068 38.3294C261.296 39.2225 260.904 40.2755 260.904 41.4806V52.385H256.712V39.2576C256.712 37.643 256.66 35.8919 256.56 33.9965H260.244L260.44 36.8708H260.556C261.044 35.9777 261.772 35.2406 262.728 34.6517C263.864 33.9653 265.136 33.6182 266.528 33.6182C268.288 33.6182 269.752 34.172 270.916 35.2835C272.364 36.6446 273.088 38.6765 273.088 41.3753V52.3889Z" fill="black"/>
<path d="M284.648 52.3887H280.46V25.5684H284.648V52.3887Z" fill="black"/>
<path d="M309.328 43.0445C309.328 45.872 308.5 48.1886 306.844 50.006C305.108 51.8741 302.804 52.8062 299.936 52.8062C297.164 52.8062 294.96 51.9131 293.32 50.1191C291.68 48.329 290.86 46.0709 290.86 43.3487C290.86 40.5017 291.704 38.1656 293.4 36.3521C295.096 34.5386 297.376 33.6299 300.244 33.6299C303.016 33.6299 305.236 34.523 306.924 36.3131C308.524 38.0525 309.328 40.2989 309.328 43.0445ZM304.976 43.1771C304.976 41.4806 304.6 40.0259 303.852 38.813C302.976 37.3466 301.72 36.6134 300.096 36.6134C298.408 36.6134 297.128 37.3466 296.252 38.813C295.5 40.0259 295.128 41.504 295.128 43.2512C295.128 44.9477 295.504 46.4024 296.252 47.6153C297.16 49.0817 298.424 49.8149 300.056 49.8149C301.656 49.8149 302.908 49.07 303.812 47.5763C304.592 46.34 304.976 44.8736 304.976 43.1771Z" fill="black"/>
<path d="M329.616 52.3889H325.852L325.54 50.2712H325.424C324.136 51.9599 322.3 52.8062 319.916 52.8062C318.136 52.8062 316.696 52.2485 315.612 51.1409C314.628 50.1347 314.136 48.8828 314.136 47.3969C314.136 45.1505 315.096 43.4384 317.028 42.2528C318.956 41.0672 321.668 40.4861 325.16 40.5134V40.1702C325.16 37.7483 323.856 36.5393 321.244 36.5393C319.384 36.5393 317.744 36.9956 316.328 37.9004L315.476 35.2172C317.228 34.1603 319.392 33.6299 321.944 33.6299C326.872 33.6299 329.344 36.1649 329.344 41.2349V48.0053C329.344 49.8422 329.436 51.3047 329.616 52.3889ZM325.264 46.0709V43.2356C320.64 43.1576 318.328 44.3939 318.328 46.9406C318.328 47.9 318.592 48.6176 319.132 49.0973C319.672 49.577 320.36 49.8149 321.18 49.8149C322.1 49.8149 322.96 49.5302 323.744 48.9647C324.532 48.3953 325.016 47.6738 325.196 46.7885C325.24 46.5896 325.264 46.3478 325.264 46.0709Z" fill="black"/>
<path d="M353.436 52.3887H349.716L349.52 49.4364H349.404C348.216 51.6828 346.192 52.806 343.348 52.806C341.077 52.806 339.185 51.9363 337.685 50.1969C336.185 48.4575 335.437 46.1994 335.437 43.4265C335.437 40.4508 336.249 38.0406 337.881 36.1998C339.461 34.4838 341.396 33.6258 343.7 33.6258C346.232 33.6258 348.004 34.4565 349.012 36.1218H349.092V25.5684H353.288V47.4357C353.288 49.2258 353.336 50.8755 353.436 52.3887ZM349.092 44.6355V41.5701C349.092 41.0397 349.052 40.6107 348.976 40.2831C348.74 39.3003 348.232 38.4735 347.46 37.8066C346.68 37.1397 345.74 36.8043 344.656 36.8043C343.092 36.8043 341.868 37.4088 340.968 38.6217C340.076 39.8346 339.625 41.3829 339.625 43.2744C339.625 45.0918 340.052 46.566 340.912 47.7009C341.82 48.9099 343.044 49.5144 344.576 49.5144C345.952 49.5144 347.052 49.0113 347.888 48.0012C348.696 47.0691 349.092 45.9459 349.092 44.6355Z" fill="black"/>
<path d="M389.288 43.0445C389.288 45.872 388.46 48.1886 386.804 50.006C385.068 51.8741 382.772 52.8062 379.896 52.8062C377.132 52.8062 374.928 51.9131 373.28 50.1191C371.64 48.329 370.82 46.0709 370.82 43.3487C370.82 40.5017 371.664 38.1656 373.36 36.3521C375.056 34.5386 377.336 33.6299 380.212 33.6299C382.976 33.6299 385.204 34.523 386.884 36.3131C388.484 38.0525 389.288 40.2989 389.288 43.0445ZM384.944 43.1771C384.944 41.4806 384.568 40.0259 383.82 38.813C382.936 37.3466 381.688 36.6134 380.056 36.6134C378.376 36.6134 377.096 37.3466 376.212 38.813C375.46 40.0259 375.088 41.504 375.088 43.2512C375.088 44.9477 375.464 46.4024 376.212 47.6153C377.12 49.0817 378.384 49.8149 380.016 49.8149C381.616 49.8149 382.876 49.07 383.78 47.5763C384.552 46.34 384.944 44.8736 384.944 43.1771Z" fill="black"/>
<path d="M411.828 52.3889H407.64V41.8589C407.64 38.6141 406.376 36.9917 403.836 36.9917C402.592 36.9917 401.588 37.4363 400.812 38.3294C400.036 39.2225 399.648 40.2755 399.648 41.4806V52.385H395.452V39.2576C395.452 37.643 395.404 35.8919 395.304 33.9965H398.984L399.18 36.8708H399.296C399.788 35.9777 400.516 35.2406 401.468 34.6517C402.608 33.9653 403.876 33.6182 405.272 33.6182C407.028 33.6182 408.492 34.172 409.656 35.2835C411.108 36.6446 411.828 38.6765 411.828 41.3753V52.3889Z" fill="black"/>
<path d="M440.04 37.0654H435.424V45.9964C435.424 48.2662 436.244 49.4011 437.868 49.4011C438.62 49.4011 439.244 49.3387 439.736 49.21L439.844 52.3105C439.016 52.6147 437.928 52.7668 436.588 52.7668C434.932 52.7668 433.644 52.2754 432.712 51.2926C431.776 50.3098 431.312 48.6562 431.312 46.3357V37.0654H428.556V34.0039H431.312V30.6343L435.42 29.4253V34H440.036V37.0654H440.04Z" fill="black"/>
<path d="M462.233 52.3887H458.037V41.9367C458.037 38.6412 456.773 36.9915 454.24 36.9915C452.296 36.9915 450.968 37.947 450.24 39.858C450.116 40.2597 450.044 40.7511 450.044 41.3283V52.3848H445.856V25.5684H450.044V36.6483H450.124C451.444 34.632 453.336 33.6258 455.789 33.6258C457.525 33.6258 458.961 34.1796 460.101 35.2911C461.521 36.6756 462.233 38.7348 462.233 41.457V52.3887Z" fill="black"/>
<path d="M485.124 42.3268C485.124 43.06 485.068 43.6762 484.968 44.1793H472.396C472.452 45.9967 473.052 47.3812 474.216 48.3406C475.28 49.1986 476.652 49.6276 478.332 49.6276C480.192 49.6276 481.888 49.339 483.416 48.7579L484.072 51.5971C482.284 52.3537 480.18 52.732 477.744 52.732C474.824 52.732 472.524 51.8935 470.86 50.2165C469.188 48.5395 468.36 46.2892 468.36 43.4656C468.36 40.6927 469.132 38.3839 470.688 36.5431C472.312 34.5775 474.508 33.5947 477.28 33.5947C479.992 33.5947 482.052 34.5775 483.444 36.5431C484.568 38.1031 485.124 40.0336 485.124 42.3268ZM481.124 41.2699C481.156 40.057 480.88 39.0118 480.312 38.1304C479.584 36.9955 478.476 36.4261 476.976 36.4261C475.608 36.4261 474.492 36.9799 473.64 38.0914C472.944 38.9767 472.532 40.0336 472.396 41.2699H481.124Z" fill="black"/>
<path d="M272.54 84.8349C263.145 84.8349 255.47 91.8061 255.47 101.424C255.47 110.965 263.145 118.009 272.54 118.009C281.955 118.009 289.63 110.965 289.63 101.424C289.63 91.8061 281.955 84.8349 272.54 84.8349ZM272.54 111.477C267.385 111.477 262.95 107.328 262.95 101.424C262.95 95.4429 267.385 91.3674 272.54 91.3674C277.695 91.3674 282.15 95.4429 282.15 101.424C282.15 107.328 277.695 111.477 272.54 111.477ZM235.295 84.8349C225.88 84.8349 218.225 91.8061 218.225 101.424C218.225 110.965 225.88 118.009 235.295 118.009C244.705 118.009 252.365 110.965 252.365 101.424C252.365 91.8061 244.705 84.8349 235.295 84.8349ZM235.295 111.477C230.135 111.477 225.685 107.328 225.685 101.424C225.685 95.4429 230.135 91.3674 235.295 91.3674C240.45 91.3674 244.885 95.4429 244.885 101.424C244.885 107.328 240.45 111.477 235.295 111.477ZM190.975 89.9195V96.9687H208.24C207.735 100.908 206.385 103.803 204.315 105.822C201.795 108.259 197.87 110.965 190.975 110.965C180.35 110.965 172.03 102.604 172.03 92.2449C172.03 81.8855 180.35 73.5249 190.975 73.5249C196.72 73.5249 200.9 75.7137 203.985 78.551L209.08 73.5834C204.765 69.5664 199.025 66.4805 190.975 66.4805C176.405 66.4805 164.16 78.0391 164.16 92.2449C164.16 106.451 176.405 118.009 190.975 118.009C198.85 118.009 204.765 115.494 209.415 110.775C214.18 106.129 215.665 99.5964 215.665 94.3216C215.665 92.6836 215.525 91.1772 215.275 89.9195H190.975ZM372.205 95.3844C370.8 91.6745 366.465 84.8349 357.635 84.8349C348.885 84.8349 341.6 91.5575 341.6 101.424C341.6 110.716 348.81 118.009 358.475 118.009C366.29 118.009 370.8 113.363 372.655 110.658L366.855 106.889C364.92 109.649 362.285 111.477 358.475 111.477C354.69 111.477 351.975 109.785 350.235 106.451L372.99 97.271L372.205 95.3844ZM349.005 100.908C348.81 94.5117 354.1 91.2357 357.89 91.2357C360.86 91.2357 363.38 92.6836 364.22 94.7555L349.005 100.908ZM330.51 117H337.99V68.2501H330.51V117ZM318.26 88.5301H318.01C316.33 86.5899 313.125 84.8349 309.065 84.8349C300.545 84.8349 292.755 92.1279 292.755 101.478C292.755 110.775 300.545 118.009 309.065 118.009C313.125 118.009 316.33 116.24 318.01 114.241H318.26V116.62C318.26 122.962 314.785 126.37 309.18 126.37C304.61 126.37 301.775 123.152 300.605 120.447L294.1 123.094C295.975 127.491 300.94 132.902 309.18 132.902C317.95 132.902 325.35 127.871 325.35 115.63V85.844H318.26V88.5301ZM309.705 111.477C304.55 111.477 300.235 107.27 300.235 101.478C300.235 95.633 304.55 91.3674 309.705 91.3674C314.785 91.3674 318.79 95.633 318.79 101.478C318.79 107.27 314.785 111.477 309.705 111.477ZM407.225 68.2501H389.335V117H396.795V98.5287H407.225C415.51 98.5287 423.635 92.6836 423.635 83.387C423.635 74.0952 415.49 68.2501 407.225 68.2501ZM407.42 91.7476H396.795V75.0312H407.42C412.99 75.0312 416.17 79.5406 416.17 83.387C416.17 87.1602 412.99 91.7476 407.42 91.7476ZM453.535 84.7422C448.145 84.7422 442.54 87.0627 440.235 92.2059L446.855 94.9115C448.28 92.2059 450.9 91.3284 453.67 91.3284C457.54 91.3284 461.465 93.5952 461.525 97.5976V98.1095C460.175 97.349 457.285 96.2229 453.73 96.2229C446.6 96.2229 439.335 100.05 439.335 107.192C439.335 113.724 445.175 117.931 451.74 117.931C456.76 117.931 459.53 115.723 461.27 113.154H461.525V116.922H468.73V98.2216C468.73 89.5782 462.11 84.7422 453.535 84.7422ZM452.635 111.457C450.195 111.457 446.795 110.277 446.795 107.328C446.795 103.555 451.035 102.107 454.705 102.107C457.99 102.107 459.53 102.814 461.525 103.745C460.94 108.259 456.955 111.457 452.635 111.457ZM494.98 85.8099L486.405 106.943H486.15L477.285 85.8099H469.24L482.56 115.343L474.96 131.776H482.755L503.28 85.8099H494.98ZM427.735 117H435.215V68.2501H427.735V117Z" fill="black"/>
<defs>
<linearGradient id="paint0_linear_1305_3306" x1="87.1985" y1="122.032" x2="21.7681" y2="54.9243" gradientUnits="userSpaceOnUse">
<stop stop-color="#00A0FF"/>
<stop offset="0.0066" stop-color="#00A1FF"/>
<stop offset="0.2601" stop-color="#00BEFF"/>
<stop offset="0.5122" stop-color="#00D2FF"/>
<stop offset="0.7604" stop-color="#00DFFF"/>
<stop offset="1" stop-color="#00E3FF"/>
</linearGradient>
<linearGradient id="paint1_linear_1305_3306" x1="135.337" y1="77.9944" x2="38.5496" y2="77.9944" gradientUnits="userSpaceOnUse">
<stop stop-color="#FFE000"/>
<stop offset="0.4087" stop-color="#FFBD00"/>
<stop offset="0.7754" stop-color="#FFA500"/>
<stop offset="1" stop-color="#FF9C00"/>
</linearGradient>
<linearGradient id="paint2_linear_1305_3306" x1="99.3072" y1="69.0452" x2="10.5783" y2="-21.9588" gradientUnits="userSpaceOnUse">
<stop stop-color="#FF3A44"/>
<stop offset="1" stop-color="#C31162"/>
</linearGradient>
<linearGradient id="paint3_linear_1305_3306" x1="29.1885" y1="155.313" x2="68.8099" y2="114.676" gradientUnits="userSpaceOnUse">
<stop stop-color="#32A071"/>
<stop offset="0.0685" stop-color="#2DA771"/>
<stop offset="0.4762" stop-color="#15CF74"/>
<stop offset="0.8009" stop-color="#06E775"/>
<stop offset="1" stop-color="#00F076"/>
</linearGradient>
</defs>
</svg>
